<svg id="Layer_1" data-name="Layer 1" xmlns="http://www.w3.org/2000/svg" xmlns:xlink="http://www.w3.org/1999/xlink" width="250" height="110" viewBox="0 0 250 110"><defs><clipPath id="clip-path" transform="translate(0)"><circle cx="20" cy="27" r="1.5" fill="none"/></clipPath><clipPath id="clip-path-2" transform="translate(0)"><path d="M27,81V78H13v3H27Zm-4,21V98H17v4h6ZM12,82.24c0,2.16,1.9,4.13,4,5.77v13.83A1.23,1.23,0,0,0,17.16,103l5.78,0A1.14,1.14,0,0,0,24,101.82V88c2.11-1.64,4-3.61,4-5.77V78.08A1.07,1.07,0,0,0,26.95,77H13.12A1.07,1.07,0,0,0,12,78S12,82.24,12,82.24ZM22.82,88v9H17.13V88a1.62,1.62,0,0,0-.52-1A8.9,8.9,0,0,1,13,82H27a10.27,10.27,0,0,1-3.6,5A1.25,1.25,0,0,0,22.82,88Z" fill="none" clip-rule="evenodd"/></clipPath><clipPath id="clip-path-3" transform="translate(0)"><circle cx="90" cy="92" r="6" fill="none"/></clipPath><clipPath id="clip-path-4" transform="translate(0)"><path d="M75.64,101.06A3.16,3.16,0,0,1,75,98.87V85.24A3,3,0,0,1,77.9,82h7.2c0.18-2.63,1-3.95,3.46-3.95h4.1c2.42,0,3.29,1.32,3.46,3.95h6A2.93,2.93,0,0,1,105,84.89l-0.05,14a3.08,3.08,0,0,1-2.78,3.1H77.8A2.72,2.72,0,0,1,75.64,101.06Z" fill="none" clip-rule="evenodd"/></clipPath><clipPath id="clip-path-5" transform="translate(0)"><path d="M150,97a0.5,0.5,0,0,1,.49-0.5h5a0.5,0.5,0,0,1,0,1h-5A0.5,0.5,0,0,1,150,97Z" fill="none" clip-rule="evenodd"/></clipPath><clipPath id="clip-path-6" transform="translate(0)"><path d="M153,94a0.5,0.5,0,0,1,.5.49v5a0.5,0.5,0,0,1-1,0v-5A0.5,0.5,0,0,1,153,94Z" fill="none" clip-rule="evenodd"/></clipPath><clipPath id="clip-path-7" transform="translate(0)"><path d="M147,79a2,2,0,0,1,2-2h8a2,2,0,0,1,2,2v8a2,2,0,0,1-2,2h-8a2,2,0,0,1-2-2V79Z" fill="none" clip-rule="evenodd"/></clipPath><clipPath id="clip-path-8" transform="translate(0)"><rect x="161" y="77" width="12" height="12" rx="2.01" ry="2.01" fill="none"/></clipPath><clipPath id="clip-path-9" transform="translate(0)"><rect x="147" y="91" width="12" height="12" rx="2.01" ry="2.01" fill="none"/></clipPath><clipPath id="clip-path-10" transform="translate(0)"><rect x="161" y="91" width="12" height="12" rx="2.01" ry="2.01" fill="none"/></clipPath><clipPath id="clip-path-11" transform="translate(0)"><path d="M164,95a0.5,0.5,0,0,1,.49-0.5h5a0.5,0.5,0,0,1,0,1h-5A0.5,0.5,0,0,1,164,95Z" fill="none" clip-rule="evenodd"/></clipPath><clipPath id="clip-path-12" transform="translate(0)"><path d="M164,99a0.5,0.5,0,0,1,.49-0.5h5a0.5,0.5,0,0,1,0,1h-5A0.5,0.5,0,0,1,164,99Z" fill="none" clip-rule="evenodd"/></clipPath><clipPath id="clip-path-13" transform="translate(0)"><path d="M150,83a0.5,0.5,0,0,1,.49-0.5h5a0.5,0.5,0,0,1,0,1h-5A0.5,0.5,0,0,1,150,83Z" fill="none" clip-rule="evenodd"/></clipPath><clipPath id="clip-path-14" transform="translate(0)"><path d="M164.19,80.19a0.66,0.66,0,0,1,.93,0l4.69,4.69a0.66,0.66,0,0,1-.94.94l-4.69-4.69A0.66,0.66,0,0,1,164.19,80.19Z" fill="none" clip-rule="evenodd"/></clipPath><clipPath id="clip-path-15" transform="translate(0)"><path d="M169.81,80.19a0.66,0.66,0,0,1,0,.93l-4.69,4.69a0.66,0.66,0,0,1-.94-0.94l4.69-4.69A0.66,0.66,0,0,1,169.81,80.19Z" fill="none" clip-rule="evenodd"/></clipPath><clipPath id="clip-path-16" transform="translate(0)"><circle cx="160" cy="20" r="13" fill="none"/></clipPath><clipPath id="clip-path-17" transform="translate(0)"><circle cx="160" cy="20" r="4" fill="none"/></clipPath><clipPath id="clip-path-18" transform="translate(0)"><path d="M235.88,12h1V31.51a0.5,0.5,0,0,1-1,0V12Z" fill="none" clip-rule="evenodd"/></clipPath><clipPath id="clip-path-19" transform="translate(0)"><circle cx="239.87" cy="14" r="1" transform="translate(25.13 121.79) rotate(-29.99)" fill="none"/></clipPath><clipPath id="clip-path-20" transform="translate(0)"><circle cx="236.38" cy="7.5" r="0.5" fill="none"/></clipPath><clipPath id="clip-path-21" transform="translate(0)"><polygon points="239.88 14 235.87 7.42 235.87 15 239.88 15 239.88 14" fill="none" clip-rule="evenodd"/></clipPath><clipPath id="clip-path-22" transform="translate(0)"><polygon points="239.98 15 240.84 13.6 236.86 7.33 235.97 7.89 239.98 15" fill="none" clip-rule="evenodd"/></clipPath><clipPath id="clip-path-23" transform="translate(0)"><path d="M223.88,27h-1V7.49a0.5,0.5,0,0,1,1,0V27Z" fill="none" clip-rule="evenodd"/></clipPath><clipPath id="clip-path-24" transform="translate(0)"><circle cx="219.87" cy="25" r="1" transform="translate(16.95 113.27) rotate(-29.99)" fill="none"/></clipPath><clipPath id="clip-path-25" transform="translate(0)"><circle cx="223.38" cy="31.5" r="0.5" fill="none"/></clipPath><clipPath id="clip-path-26" transform="translate(0)"><polygon points="219.88 25 223.88 31.59 223.88 24 219.88 24 219.88 25" fill="none" clip-rule="evenodd"/></clipPath><clipPath id="clip-path-27" transform="translate(0)"><polygon points="219.77 24 218.91 25.4 222.89 31.67 223.78 31.11 219.77 24" fill="none" clip-rule="evenodd"/></clipPath><clipPath id="clip-path-28" transform="translate(0)"><path d="M222.56,100.81l0,0a13.48,13.48,0,0,1-.27-21.57,0.52,0.52,0,0,1,.45-0.26,0.54,0.54,0,0,1,.42.84l0,0-0.08.06-0.12.09a12.32,12.32,0,0,0-5,9.94A12.51,12.51,0,0,0,219.06,95h3.55a0.8,0.8,0,0,1,.84.75v4.5h0a0.57,0.57,0,0,1,0,.17,0.53,0.53,0,0,1-.52.53A0.51,0.51,0,0,1,222.56,100.81Z" fill="none" clip-rule="evenodd"/></clipPath><clipPath id="clip-path-29" transform="translate(0)"><path d="M237.44,79.19l0,0a13.48,13.48,0,0,1,.27,21.57,0.51,0.51,0,0,1-.45.26,0.53,0.53,0,0,1-.52-0.53,0.54,0.54,0,0,1,.1-0.31l0,0,0.08-.06,0.13-.09a12.32,12.32,0,0,0,5-9.94A12.51,12.51,0,0,0,240.94,85h-3.55a0.8,0.8,0,0,1-.84-0.75V79.7h0a0.56,0.56,0,0,1,0-.17A0.53,0.53,0,0,1,237,79,0.51,0.51,0,0,1,237.44,79.19Z" fill="none" clip-rule="evenodd"/></clipPath><clipPath id="clip-path-30" transform="translate(0)"><path d="M223.11,88.88L227.9,83l9.51,8.22-4.79,5.88Zm-0.41.76a1,1,0,0,1-.12-1.44l4.58-5.62a1,1,0,0,1,1.4-.13l9.26,8a1,1,0,0,1,.12,1.44l-4.58,5.62a1,1,0,0,1-1.4.13Z" fill="none" clip-rule="evenodd"/></clipPath></defs><title>ic-camera-new</title><rect width="40" height="40" fill="none"/><g clip-path="url(#clip-path)"><rect x="13.5" y="20.5" width="13" height="13" fill="#a6a7ae"/></g><path d="M28,20a10,10,0,0,0-16,0" transform="translate(0)" fill="none" stroke="#a6a7ae" stroke-linecap="round" stroke-linejoin="round"/><path d="M32,16A16.9,16.9,0,0,0,8,16" transform="translate(0)" fill="none" stroke="#a6a7ae" stroke-linecap="round" stroke-linejoin="round"/><path d="M16,23a5,5,0,0,1,8,0" transform="translate(0)" fill="none" stroke="#a6a7ae" stroke-linecap="round" stroke-linejoin="round"/><rect x="70" width="40" height="40" fill="none"/><path d="M101.36,8.75l-0.11-.11a2,2,0,0,0-2.88,0l-6.2,6.21L80,12.71a1.29,1.29,0,0,0-1.06.33l-0.56.56a0.91,0.91,0,0,0,.29,1.58l9,4.13-4.16,4.17-4.43-1.11a0.44,0.44,0,0,0-.39.11l-0.38.38a0.57,0.57,0,0,0,.12.94l4.86,2.86h0l0,0v0l2.8,4.81a0.56,0.56,0,0,0,.94.12l0.38-.38a0.44,0.44,0,0,0,.11-0.39l-1.09-4.38,4.17-4.17,4.1,9a0.91,0.91,0,0,0,1.58.29l0.55-.56A1.3,1.3,0,0,0,97.26,30L95.13,17.88l6.23-6.24a2,2,0,0,0,0-2.89" transform="translate(0)" fill="none" stroke="#a6a7ae" stroke-miterlimit="10"/><rect x="70" y="69.88" width="40" height="40" fill="none"/><rect y="69.88" width="40" height="40" fill="none"/><g clip-path="url(#clip-path-2)"><rect x="7" y="72" width="26" height="35.99" fill="#a6a7ae"/></g><g clip-path="url(#clip-path-3)"><circle cx="90" cy="92" r="6" fill="none" stroke="#a6a7ae" stroke-linecap="round" stroke-linejoin="round" stroke-width="2"/></g><g clip-path="url(#clip-path-4)"><path d="M75.64,101.06A3.16,3.16,0,0,1,75,98.87V85.24A3,3,0,0,1,77.9,82h7.2c0.18-2.63,1-3.95,3.46-3.95h4.1c2.42,0,3.29,1.32,3.46,3.95h6A2.93,2.93,0,0,1,105,84.89l-0.05,14a3.08,3.08,0,0,1-2.78,3.1H77.8A2.72,2.72,0,0,1,75.64,101.06Z" transform="translate(0)" fill="none" stroke="#a6a7ae" stroke-linecap="round" stroke-linejoin="round" stroke-width="2"/></g><rect x="140" y="70" width="40" height="40" fill="none"/><g clip-path="url(#clip-path-5)"><rect x="145" y="91.5" width="16" height="11" fill="#a6a7ae"/></g><g clip-path="url(#clip-path-6)"><rect x="147.5" y="89" width="11" height="16" fill="#a6a7ae"/></g><g clip-path="url(#clip-path-7)"><path d="M147,79a2,2,0,0,1,2-2h8a2,2,0,0,1,2,2v8a2,2,0,0,1-2,2h-8a2,2,0,0,1-2-2V79Z" transform="translate(0)" fill="none" stroke="#a6a7ae" stroke-miterlimit="10" stroke-width="2"/></g><g clip-path="url(#clip-path-8)"><rect x="161" y="77" width="12" height="12" rx="2.01" ry="2.01" fill="none" stroke="#a6a7ae" stroke-miterlimit="10" stroke-width="2"/></g><g clip-path="url(#clip-path-9)"><rect x="147" y="91" width="12" height="12" rx="2.01" ry="2.01" fill="none" stroke="#a6a7ae" stroke-miterlimit="10" stroke-width="2"/></g><g clip-path="url(#clip-path-10)"><rect x="161" y="91" width="12" height="12" rx="2.01" ry="2.01" fill="none" stroke="#a6a7ae" stroke-miterlimit="10" stroke-width="2"/></g><g clip-path="url(#clip-path-11)"><rect x="159" y="89.5" width="16" height="11" fill="#a6a7ae"/></g><g clip-path="url(#clip-path-12)"><rect x="159" y="93.5" width="16" height="11" fill="#a6a7ae"/></g><g clip-path="url(#clip-path-13)"><rect x="145" y="77.5" width="16" height="11" fill="#a6a7ae"/></g><g clip-path="url(#clip-path-14)"><rect x="159.72" y="72.42" width="14.55" height="21.17" transform="translate(-9.78 142.4) rotate(-45)" fill="#a6a7ae"/></g><g clip-path="url(#clip-path-15)"><rect x="156.42" y="75.72" width="21.17" height="14.55" transform="translate(-9.78 142.4) rotate(-45)" fill="#a6a7ae"/></g><rect x="140" width="40" height="40" fill="none"/><g clip-path="url(#clip-path-16)"><circle cx="160" cy="20" r="13" fill="none" stroke="#a6a7ae" stroke-miterlimit="10" stroke-width="2"/></g><g clip-path="url(#clip-path-17)"><circle cx="160" cy="20" r="4" fill="none" stroke="#a6a7ae" stroke-miterlimit="10" stroke-width="2"/></g><polyline points="166.63 18.1 168.52 20 166.63 21.9" fill="none" stroke="#a6a7ae" stroke-miterlimit="10"/><polyline points="153.38 18.1 151.48 20 153.38 21.9" fill="none" stroke="#a6a7ae" stroke-miterlimit="10"/><polyline points="161.9 26.63 160 28.52 158.1 26.63" fill="none" stroke="#a6a7ae" stroke-miterlimit="10"/><polyline points="161.9 13.38 160 11.48 158.1 13.38" fill="none" stroke="#a6a7ae" stroke-miterlimit="10"/><rect x="210" width="40" height="40" fill="none"/><rect x="210" y="70" width="40" height="40" fill="none"/><g clip-path="url(#clip-path-18)"><rect x="230.87" y="7" width="11" height="30" fill="#a6a7ae"/></g><g clip-path="url(#clip-path-19)"><rect x="233.87" y="8" width="12" height="12" fill="#a6a7ae"/></g><g clip-path="url(#clip-path-20)"><rect x="230.87" y="2" width="11" height="11" fill="#a6a7ae"/></g><g clip-path="url(#clip-path-21)"><rect x="230.87" y="2.42" width="14" height="17.58" fill="#a6a7ae"/></g><g clip-path="url(#clip-path-22)"><rect x="230.97" y="2.33" width="14.87" height="17.67" fill="#a6a7ae"/></g><g clip-path="url(#clip-path-23)"><rect x="217.87" y="2" width="11" height="30" fill="#a6a7ae"/></g><g clip-path="url(#clip-path-24)"><rect x="213.87" y="19" width="12" height="12" fill="#a6a7ae"/></g><g clip-path="url(#clip-path-25)"><rect x="217.87" y="26" width="11" height="11" fill="#a6a7ae"/></g><g clip-path="url(#clip-path-26)"><rect x="214.87" y="19" width="14" height="17.59" fill="#a6a7ae"/></g><g clip-path="url(#clip-path-27)"><rect x="213.91" y="19" width="14.87" height="17.67" fill="#a6a7ae"/></g><g clip-path="url(#clip-path-28)"><rect x="212.06" y="73.91" width="16.36" height="32.19" fill="#a6a7ae"/></g><g clip-path="url(#clip-path-29)"><rect x="231.58" y="73.91" width="16.36" height="32.19" fill="#a6a7ae"/></g><g clip-path="url(#clip-path-30)"><polygon points="215 89.57 226.98 75 245 90.43 233.01 105 215 89.57" fill="#a6a7ae"/></g></svg>