<svg id="Layer_1" data-name="Layer 1" xmlns="http://www.w3.org/2000/svg" xmlns:xlink="http://www.w3.org/1999/xlink" width="40" height="40" viewBox="0 0 40 40"><defs><clipPath id="clip-path"><path d="M27,11V8H13v3H27ZM23,32V28H17v4h6ZM12,12.24c0,2.16,1.9,4.13,4,5.77V31.84A1.23,1.23,0,0,0,17.16,33l5.78,0A1.14,1.14,0,0,0,24,31.82V18c2.11-1.64,4-3.61,4-5.77V8.08A1.07,1.07,0,0,0,26.95,7H13.12A1.07,1.07,0,0,0,12,8S12,12.24,12,12.24ZM22.82,18v9H17.13V18a1.62,1.62,0,0,0-.52-1A8.9,8.9,0,0,1,13,12H27a10.27,10.27,0,0,1-3.6,5A1.25,1.25,0,0,0,22.82,18Z" fill="none" clip-rule="evenodd"/></clipPath></defs><title>ic-flashlight-new</title><rect y="-0.13" width="40" height="40" fill="none"/><g clip-path="url(#clip-path)"><rect x="7" y="2" width="26" height="35.99" fill="#a6a7ae"/></g></svg>