<svg id="Layer_1" data-name="Layer 1" xmlns="http://www.w3.org/2000/svg" width="40" height="40" viewBox="0 0 40 40"><title>ic-airplane-white</title><rect width="40" height="40" fill="none"/><path d="M31.36,8.75l-0.11-.11a2,2,0,0,0-2.88,0l-6.2,6.21L10,12.71A1.29,1.29,0,0,0,8.92,13l-0.56.56a0.91,0.91,0,0,0,.29,1.58l9,4.13-4.16,4.17L9.12,22.38a0.44,0.44,0,0,0-.39.11l-0.38.38a0.57,0.57,0,0,0,.12.94l4.86,2.86h0l0,0v0l2.8,4.81a0.56,0.56,0,0,0,.94.12l0.38-.38a0.44,0.44,0,0,0,.11-0.39l-1.09-4.38,4.17-4.17,4.1,9a0.91,0.91,0,0,0,1.58.29l0.55-.56A1.3,1.3,0,0,0,27.26,30L25.13,17.88l6.23-6.24a2,2,0,0,0,0-2.89" fill="none" stroke="#fff" stroke-miterlimit="10"/></svg>