<svg id="Layer_1" data-name="Layer 1" xmlns="http://www.w3.org/2000/svg" xmlns:xlink="http://www.w3.org/1999/xlink" width="40" height="40" viewBox="0 0 40 40"><defs><clipPath id="clip-path"><path d="M12.56,30.81l0,0a13.48,13.48,0,0,1-.27-21.57A0.52,0.52,0,0,1,12.71,9a0.54,0.54,0,0,1,.42.84l0,0-0.08.06L12.94,10a12.32,12.32,0,0,0-5,9.94A12.51,12.51,0,0,0,9.06,25h3.55a0.8,0.8,0,0,1,.84.75v4.5h0a0.57,0.57,0,0,1,0,.17A0.53,0.53,0,0,1,13,31,0.51,0.51,0,0,1,12.56,30.81Z" fill="#fff" clip-rule="evenodd"/></clipPath><clipPath id="clip-path-2"><path d="M27.44,9.19l0,0a13.48,13.48,0,0,1,.27,21.57,0.51,0.51,0,0,1-.45.26,0.53,0.53,0,0,1-.52-0.53,0.54,0.54,0,0,1,.1-0.31l0,0,0.08-.06L27.06,30a12.32,12.32,0,0,0,5-9.94A12.51,12.51,0,0,0,30.94,15H27.38a0.8,0.8,0,0,1-.84-0.75V9.7h0a0.56,0.56,0,0,1,0-.17A0.53,0.53,0,0,1,27,9,0.51,0.51,0,0,1,27.44,9.19Z" fill="#fff" clip-rule="evenodd"/></clipPath><clipPath id="clip-path-3"><path d="M13.11,18.88L17.9,13l9.51,8.22-4.79,5.88Zm-0.41.76a1,1,0,0,1-.12-1.44l4.58-5.62a1,1,0,0,1,1.4-.13l9.26,8a1,1,0,0,1,.12,1.44l-4.58,5.62a1,1,0,0,1-1.4.13Z" fill="#fff" clip-rule="evenodd"/></clipPath></defs><title>ic-auto-rotate-white</title><rect width="40" height="40" fill="none"/><path d="M12.56,30.81l0,0a13.48,13.48,0,0,1-.27-21.57A0.52,0.52,0,0,1,12.71,9a0.54,0.54,0,0,1,.42.84l0,0-0.08.06L12.94,10a12.32,12.32,0,0,0-5,9.94A12.51,12.51,0,0,0,9.06,25h3.55a0.8,0.8,0,0,1,.84.75v4.5h0a0.57,0.57,0,0,1,0,.17A0.53,0.53,0,0,1,13,31,0.51,0.51,0,0,1,12.56,30.81Z" fill="#fff" fill-rule="evenodd"/><g clip-path="url(#clip-path)"><rect x="2.06" y="3.91" width="16.36" height="32.19" fill="#fff"/></g><path d="M27.44,9.19l0,0a13.48,13.48,0,0,1,.27,21.57,0.51,0.51,0,0,1-.45.26,0.53,0.53,0,0,1-.52-0.53,0.54,0.54,0,0,1,.1-0.31l0,0,0.08-.06L27.06,30a12.32,12.32,0,0,0,5-9.94A12.51,12.51,0,0,0,30.94,15H27.38a0.8,0.8,0,0,1-.84-0.75V9.7h0a0.56,0.56,0,0,1,0-.17A0.53,0.53,0,0,1,27,9,0.51,0.51,0,0,1,27.44,9.19Z" fill="#fff" fill-rule="evenodd"/><g clip-path="url(#clip-path-2)"><rect x="21.58" y="3.91" width="16.36" height="32.19" fill="#fff"/></g><path d="M13.11,18.88L17.9,13l9.51,8.22-4.79,5.88Zm-0.41.76a1,1,0,0,1-.12-1.44l4.58-5.62a1,1,0,0,1,1.4-.13l9.26,8a1,1,0,0,1,.12,1.44l-4.58,5.62a1,1,0,0,1-1.4.13Z" fill="#fff" fill-rule="evenodd"/><g clip-path="url(#clip-path-3)"><polygon points="5 19.57 16.98 5 35 20.43 23.02 35 5 19.57" fill="#fff"/></g></svg>