<svg id="Layer_1" data-name="Layer 1" xmlns="http://www.w3.org/2000/svg" xmlns:xlink="http://www.w3.org/1999/xlink" width="40" height="40" viewBox="0 0 40 40"><defs><clipPath id="clip-path"><path d="M10,27a0.5,0.5,0,0,1,.49-0.5h5a0.5,0.5,0,0,1,0,1h-5A0.5,0.5,0,0,1,10,27Z" fill="#fff" clip-rule="evenodd"/></clipPath><clipPath id="clip-path-2"><path d="M13,24a0.5,0.5,0,0,1,.5.49v5a0.5,0.5,0,0,1-1,0v-5A0.5,0.5,0,0,1,13,24Z" fill="#fff" clip-rule="evenodd"/></clipPath><clipPath id="clip-path-3"><path d="M7,9A2,2,0,0,1,9,7h8a2,2,0,0,1,2,2v8a2,2,0,0,1-2,2H9a2,2,0,0,1-2-2V9Z" fill="none" stroke="#fff" stroke-miterlimit="10" clip-rule="evenodd"/></clipPath><clipPath id="clip-path-4"><rect x="21" y="7" width="12" height="12" rx="2.01" ry="2.01" fill="none" stroke="#fff" stroke-miterlimit="10"/></clipPath><clipPath id="clip-path-5"><rect x="7" y="21" width="12" height="12" rx="2.01" ry="2.01" fill="none"/></clipPath><clipPath id="clip-path-6"><rect x="21" y="21" width="12" height="12" rx="2.01" ry="2.01" fill="none" stroke="#fff" stroke-miterlimit="10"/></clipPath><clipPath id="clip-path-7"><path d="M24,25a0.5,0.5,0,0,1,.49-0.5h5a0.5,0.5,0,0,1,0,1h-5A0.5,0.5,0,0,1,24,25Z" fill="#fff" clip-rule="evenodd"/></clipPath><clipPath id="clip-path-8"><path d="M24,29a0.5,0.5,0,0,1,.49-0.5h5a0.5,0.5,0,0,1,0,1h-5A0.5,0.5,0,0,1,24,29Z" fill="#fff" clip-rule="evenodd"/></clipPath><clipPath id="clip-path-9"><path d="M10,13a0.5,0.5,0,0,1,.49-0.5h5a0.5,0.5,0,0,1,0,1h-5A0.5,0.5,0,0,1,10,13Z" fill="#fff" clip-rule="evenodd"/></clipPath><clipPath id="clip-path-10"><path d="M24.19,10.19a0.66,0.66,0,0,1,.93,0l4.69,4.69a0.66,0.66,0,0,1-.94.94l-4.69-4.69A0.66,0.66,0,0,1,24.19,10.19Z" fill="#fff" clip-rule="evenodd"/></clipPath><clipPath id="clip-path-11"><path d="M29.81,10.19a0.66,0.66,0,0,1,0,.93l-4.69,4.69a0.66,0.66,0,0,1-.94-0.94l4.69-4.69A0.66,0.66,0,0,1,29.81,10.19Z" fill="#fff" clip-rule="evenodd"/></clipPath></defs><title>ic-calculator-white</title><rect width="40" height="40" fill="none"/><path d="M10,27a0.5,0.5,0,0,1,.49-0.5h5a0.5,0.5,0,0,1,0,1h-5A0.5,0.5,0,0,1,10,27Z" fill="#fff" fill-rule="evenodd"/><g clip-path="url(#clip-path)"><rect x="5" y="21.5" width="16" height="11" fill="#fff"/></g><path d="M13,24a0.5,0.5,0,0,1,.5.49v5a0.5,0.5,0,0,1-1,0v-5A0.5,0.5,0,0,1,13,24Z" fill="#fff" fill-rule="evenodd"/><g clip-path="url(#clip-path-2)"><rect x="7.5" y="19" width="11" height="16" fill="#fff"/></g><g clip-path="url(#clip-path-3)"><path d="M7,9A2,2,0,0,1,9,7h8a2,2,0,0,1,2,2v8a2,2,0,0,1-2,2H9a2,2,0,0,1-2-2V9Z" fill="none" stroke="#fff" stroke-miterlimit="10"/></g><path d="M7,9A2,2,0,0,1,9,7h8a2,2,0,0,1,2,2v8a2,2,0,0,1-2,2H9a2,2,0,0,1-2-2V9Z" fill="none" stroke="#fff" stroke-miterlimit="10" fill-rule="evenodd"/><g clip-path="url(#clip-path-4)"><rect x="21" y="7" width="12" height="12" rx="2.01" ry="2.01" fill="none" stroke="#fff" stroke-miterlimit="10"/></g><rect x="21" y="7" width="12" height="12" rx="2.01" ry="2.01" fill="none" stroke="#fff" stroke-miterlimit="10"/><g clip-path="url(#clip-path-5)"><rect x="7" y="21" width="12" height="12" rx="2.01" ry="2.01" fill="none" stroke="#fff" stroke-miterlimit="10" stroke-width="2"/></g><g clip-path="url(#clip-path-6)"><rect x="21" y="21" width="12" height="12" rx="2.01" ry="2.01" fill="none" stroke="#fff" stroke-miterlimit="10"/></g><rect x="21" y="21" width="12" height="12" rx="2.01" ry="2.01" fill="none" stroke="#fff" stroke-miterlimit="10"/><path d="M24,25a0.5,0.5,0,0,1,.49-0.5h5a0.5,0.5,0,0,1,0,1h-5A0.5,0.5,0,0,1,24,25Z" fill="#fff" fill-rule="evenodd"/><g clip-path="url(#clip-path-7)"><rect x="19" y="19.5" width="16" height="11" fill="#fff"/></g><path d="M24,29a0.5,0.5,0,0,1,.49-0.5h5a0.5,0.5,0,0,1,0,1h-5A0.5,0.5,0,0,1,24,29Z" fill="#fff" fill-rule="evenodd"/><g clip-path="url(#clip-path-8)"><rect x="19" y="23.5" width="16" height="11" fill="#fff"/></g><path d="M10,13a0.5,0.5,0,0,1,.49-0.5h5a0.5,0.5,0,0,1,0,1h-5A0.5,0.5,0,0,1,10,13Z" fill="#fff" fill-rule="evenodd"/><g clip-path="url(#clip-path-9)"><rect x="5" y="7.5" width="16" height="11" fill="#fff"/></g><path d="M24.19,10.19a0.66,0.66,0,0,1,.93,0l4.69,4.69a0.66,0.66,0,0,1-.94.94l-4.69-4.69A0.66,0.66,0,0,1,24.19,10.19Z" fill="#fff" fill-rule="evenodd"/><g clip-path="url(#clip-path-10)"><rect x="19.72" y="2.42" width="14.55" height="21.17" transform="translate(-1.28 22.9) rotate(-45)" fill="#fff"/></g><path d="M29.81,10.19a0.66,0.66,0,0,1,0,.93l-4.69,4.69a0.66,0.66,0,0,1-.94-0.94l4.69-4.69A0.66,0.66,0,0,1,29.81,10.19Z" fill="#fff" fill-rule="evenodd"/><g clip-path="url(#clip-path-11)"><rect x="16.42" y="5.72" width="21.17" height="14.55" transform="translate(-1.28 22.9) rotate(-45)" fill="#fff"/></g></svg>