<svg id="Layer_1" data-name="Layer 1" xmlns="http://www.w3.org/2000/svg" xmlns:xlink="http://www.w3.org/1999/xlink" width="40" height="40" viewBox="0 0 40 40"><defs><clipPath id="clip-path"><circle cx="20" cy="22" r="6" fill="none"/></clipPath><clipPath id="clip-path-2"><path d="M5.64,31.06A3.16,3.16,0,0,1,5,28.87V15.24A3,3,0,0,1,7.9,12h7.2C15.28,9.33,16.14,8,18.56,8h4.1c2.42,0,3.29,1.32,3.46,3.95h6A2.93,2.93,0,0,1,35,14.89l-0.05,14A3.08,3.08,0,0,1,32.17,32H7.8A2.72,2.72,0,0,1,5.64,31.06Z" fill="none" clip-rule="evenodd"/></clipPath></defs><title>ic-camera-new</title><rect y="-0.13" width="40" height="40" fill="none"/><g clip-path="url(#clip-path)"><circle cx="20" cy="22" r="6" fill="none" stroke="#a6a7ae" stroke-linecap="round" stroke-linejoin="round" stroke-width="2"/></g><g clip-path="url(#clip-path-2)"><path d="M5.64,31.06A3.16,3.16,0,0,1,5,28.87V15.24A3,3,0,0,1,7.9,12h7.2C15.28,9.33,16.14,8,18.56,8h4.1c2.42,0,3.29,1.32,3.46,3.95h6A2.93,2.93,0,0,1,35,14.89l-0.05,14A3.08,3.08,0,0,1,32.17,32H7.8A2.72,2.72,0,0,1,5.64,31.06Z" fill="none" stroke="#a6a7ae" stroke-linecap="round" stroke-linejoin="round" stroke-width="2"/></g></svg>