<?xml version="1.0" encoding="UTF-8" standalone="no"?>
<svg width="32px" height="26px" viewBox="0 0 32 26" version="1.1" xmlns="http://www.w3.org/2000/svg" xmlns:xlink="http://www.w3.org/1999/xlink">
    <!-- Generator: Sketch 40.1 (33804) - http://www.bohemiancoding.com/sketch -->
    <title>ic_auto_rotate_default</title>
    <desc>Created with Sketch.</desc>
    <defs></defs>
    <g id="Control-Center" stroke="none" stroke-width="1" fill="none" fill-rule="evenodd">
        <g id="EUI6_ControlCenter_1.0.2" transform="translate(-226.000000, -174.000000)" fill="#A6A7AE">
            <g id="Quick-Control-Maximum" transform="translate(-349.980000, -51.300000)">
                <g id="Quick-Control-Maximized" transform="translate(349.980000, 188.100000)">
                    <g id="Row-1" transform="translate(18.240000, 18.240000)">
                        <g id="ic_auto_rotate_default" transform="translate(200.640000, 9.120000)">
                            <path d="M12.620413,30.6595879 L12.5942531,30.6857479 C9.21348867,28.3382953 7,24.4276418 7,20.0000004 C7,15.6919007 9.09557837,11.8732496 12.3229949,9.50778715 C12.4144216,9.35346694 12.5826279,9.25 12.7750002,9.25 C13.0649497,9.25 13.3000002,9.4850505 13.3000002,9.775 C13.3000002,9.88837401 13.264063,9.99335446 13.2029586,10.0791714 L13.2187074,10.0984199 C13.1917239,10.1169356 13.1648199,10.1355587 13.1379959,10.1542887 C13.1006581,10.1900324 13.058052,10.2203173 13.0114595,10.2438615 C9.97683852,12.4214884 8.00000004,15.9798867 8.00000004,20.0000004 C8.00000004,21.7844285 8.38948672,23.4778871 9.08808453,25.0000006 L12.6833333,25.0000006 C13.1509345,25.0000006 13.53,25.3300307 13.53,25.7371435 C13.53,26.1442562 13.53,30.1600008 13.53,30.1600008 C13.53,30.1600008 13.5277329,30.1597825 13.5233193,30.1593117 C13.5406285,30.2113961 13.5500002,30.2671036 13.5500002,30.325 C13.5500002,30.6149495 13.3149497,30.85 13.0250002,30.85 C12.8622016,30.85 12.71671,30.7759001 12.620413,30.6595879 Z" id="Rotation-Lock"></path>
                            <path d="M32.3704128,30.6595872 L32.3442529,30.6857471 C28.9634886,28.3382946 26.75,24.4276413 26.75,20 C26.75,15.6919005 28.8455783,11.8732495 32.0729947,9.50778714 C32.1644214,9.35346694 32.3326277,9.25 32.525,9.25 C32.8149495,9.25 33.05,9.4850505 33.05,9.77499998 C33.05,9.88837399 33.0140628,9.99335443 32.9529584,10.0791714 L32.9687072,10.0984199 C32.9417237,10.1169356 32.9148196,10.1355587 32.8879957,10.1542886 C32.8506579,10.1900323 32.8080518,10.2203173 32.7614593,10.2438614 C29.7268384,12.4214883 27.75,15.9798865 27.75,20 C27.75,21.784428 28.1394867,23.4778865 28.8380844,25 L32.4333331,25 C32.9009342,25 33.2799998,25.3300301 33.2799998,25.7371429 C33.2799998,26.1442556 33.2799998,30.16 33.2799998,30.16 C33.2799998,30.16 33.2777326,30.1597817 33.273319,30.1593109 C33.2906282,30.2113953 33.3,30.2671028 33.3,30.3249992 C33.3,30.6149487 33.0649495,30.8499992 32.775,30.8499992 C32.6122014,30.8499992 32.4667098,30.7758993 32.3704128,30.6595872 Z" id="Rotation-Lock" transform="translate(30.025000, 20.050000) scale(-1, -1) translate(-30.025000, -20.050000) "></path>
                            <path d="M15.807436,13.9866138 C15.807436,13.433755 16.2517234,12.9855743 16.8107579,12.9855743 L24.0155657,12.9855743 C24.5696851,12.9855743 25.0188876,13.4272365 25.0188876,13.9866138 L25.0188876,26.2204147 C25.0188876,26.7732735 24.5746001,27.2214541 24.0155657,27.2214541 L16.8107579,27.2214541 C16.2566385,27.2214541 15.807436,26.779792 15.807436,26.2204147 L15.807436,13.9866138 Z M16.6448407,13.822979 L24.1814829,13.822979 L24.1814829,26.3840494 L16.6448407,26.3840494 L16.6448407,13.822979 Z" id="Combined-Shape" transform="translate(20.413162, 20.103514) rotate(-50.000000) translate(-20.413162, -20.103514) "></path>
                        </g>
                    </g>
                </g>
            </g>
        </g>
    </g>
</svg>