<svg id="auto-rotate" xmlns="http://www.w3.org/2000/svg" width="45" height="45" viewBox="0 0 45 45"><title>ic_auto_rotate</title><rect width="45" height="45" fill="none"/><path id="Rotation-Lock" d="M15.31,33.11l0,0A13,13,0,0,1,15,12a0.53,0.53,0,1,1,.88.57l0,0-0.08.06-0.13.09a12,12,0,0,0-3.92,14.76h3.6a0.8,0.8,0,0,1,.85.74v4.42h0A0.53,0.53,0,0,1,15.31,33.11Z" transform="translate(0 0)" fill="#a6a7ae"/><path id="Rotation-Lock-2" data-name="Rotation-Lock" d="M30.37,11.89l0,0A13,13,0,0,1,30.67,33a0.53,0.53,0,1,1-.88-0.57l0,0,0.08-.06L30,32.31a12,12,0,0,0,3.92-14.76h-3.6a0.8,0.8,0,0,1-.85-0.74V12.39h0A0.53,0.53,0,0,1,30.37,11.89Z" transform="translate(0 0)" fill="#a6a7ae"/><path id="Combined-Shape" d="M15.46,22.15a1,1,0,0,1-.12-1.41L20,15.22a1,1,0,0,1,1.41-.13L30.75,23a1,1,0,0,1,.12,1.41l-4.63,5.52a1,1,0,0,1-1.41.13Zm0.41-.75,4.84-5.77,9.62,8.07L25.5,29.48Z" transform="translate(0 0)" fill="#a6a7ae"/></svg>