<?xml version="1.0" encoding="utf-8"?>
<!-- Generator: Adobe Illustrator 19.2.1, SVG Export Plug-In . SVG Version: 6.00 Build 0)  -->
<svg version="1.1" id="airplane" xmlns="http://www.w3.org/2000/svg" xmlns:xlink="http://www.w3.org/1999/xlink" x="0px" y="0px"
	 viewBox="0 0 45 45" style="enable-background:new 0 0 45 45;" xml:space="preserve">
<style type="text/css">
	.st0{fill:none;}
	.st1{fill:none;stroke:#A6A7AE;}
</style>
<title>ic_airplane_default</title>
<desc>Created with Sketch.</desc>
<rect y="0" class="st0" width="45" height="45"/>
<path id="Shape" class="st1" d="M33.9,11.4l-0.1-0.1c0,0-1.4-1.4-2.9,0l-6.2,6.2l-12.2-2.1c0,0-0.6-0.1-1.1,0.3L11,16.3
	c0,0-1,1,0.3,1.6l9,4.1l-4.2,4.2L11.7,25c0,0-0.2-0.1-0.4,0.1l-0.4,0.4c0,0-0.5,0.5,0.1,0.9l4.9,2.9c0,0,0,0,0,0l0,0c0,0,0,0,0,0
	l2.8,4.8c0.4,0.7,0.9,0.1,0.9,0.1l0.4-0.4c0.2-0.2,0.1-0.4,0.1-0.4l-1.1-4.4l4.2-4.2l4.1,9c0.6,1.3,1.6,0.3,1.6,0.3l0.6-0.6
	c0.4-0.4,0.3-1.1,0.3-1.1l-2.1-12.1l6.2-6.2C33.9,14.3,35.4,12.9,33.9,11.4"/>
</svg>
