<?xml version="1.0" encoding="UTF-8" standalone="no"?>
<svg width="30px" height="30px" viewBox="0 0 30 30" version="1.1" xmlns="http://www.w3.org/2000/svg" xmlns:xlink="http://www.w3.org/1999/xlink">
    <!-- Generator: Sketch 40.1 (33804) - http://www.bohemiancoding.com/sketch -->
    <title>ic_airplane_default</title>
    <desc>Created with Sketch.</desc>
    <defs></defs>
    <g id="Control-Center" stroke="none" stroke-width="1" fill="none" fill-rule="evenodd">
        <g id="EUI6_ControlCenter_1.0.2" transform="translate(-318.000000, -172.000000)" stroke="#A6A7AE">
            <g id="Quick-Control-Maximum" transform="translate(-349.980000, -51.300000)">
                <g id="Quick-Control-Maximized" transform="translate(349.980000, 188.100000)">
                    <g id="Row-1" transform="translate(18.240000, 18.240000)">
                        <g id="ic_airplane_default" transform="translate(291.840000, 9.120000)">
                            <path d="M31.358,8.771 L31.247,8.66 C31.247,8.66 29.8055,7.2185 28.364,8.66 L22.1615,14.864 L9.9875,12.7265 C9.9875,12.7265 9.371,12.617 8.927,13.061 L8.372,13.616 C8.372,13.616 7.3745,14.6135 8.6585,15.1985 L17.7005,19.3235 L13.5425,23.483 L9.1175,22.379 C9.1175,22.379 8.8895,22.322 8.723,22.4885 L8.342,22.8695 C8.342,22.8695 7.7945,23.4185 8.462,23.81 L13.3175,26.663 C13.3175,26.663 13.325,26.666 13.334,26.672 L13.364,26.7005 C13.37,26.7125 13.3745,26.723 13.3745,26.723 L16.175,31.5215 C16.5665,32.1905 17.114,31.6415 17.114,31.6415 L17.495,31.2605 C17.6615,31.094 17.6045,30.866 17.6045,30.866 L16.5155,26.4965 L20.6825,22.3295 L24.785,31.325 C25.37,32.609 26.369,31.6115 26.369,31.6115 L26.9225,31.0565 C27.3665,30.614 27.2585,29.996 27.2585,29.996 L25.1315,17.8805 L31.358,11.654 C31.358,11.654 32.7995,10.2125 31.358,8.771" id="Shape"></path>
                        </g>
                    </g>
                </g>
            </g>
        </g>
    </g>
</svg>