<svg id="airplane" xmlns="http://www.w3.org/2000/svg" width="45" height="45" viewBox="0 0 45 45"><title>ic_airplane</title><rect width="45" height="45" fill="none"/><path id="Shape" d="M33.94,11.43l-0.11-.11a2,2,0,0,0-2.88,0l-6.2,6.2L12.57,15.39a1.29,1.29,0,0,0-1.06.33L11,16.28a0.91,0.91,0,0,0,.29,1.58l9,4.13-4.16,4.16L11.7,25a0.44,0.44,0,0,0-.39.11l-0.38.38a0.56,0.56,0,0,0,.12.94l4.86,2.85h0l0,0v0l2.8,4.8a0.56,0.56,0,0,0,.94.12l0.38-.38a0.44,0.44,0,0,0,.11-0.39L19.1,29.16,23.26,25l4.1,9a0.91,0.91,0,0,0,1.58.29l0.55-.56a1.3,1.3,0,0,0,.34-1.06L27.71,20.54l6.23-6.23a2,2,0,0,0,0-2.88" transform="translate(0 0)" fill="none" stroke="#a6a7ae"/></svg>