<svg id="Layer_1" data-name="Layer 1" xmlns="http://www.w3.org/2000/svg" width="45" height="45" viewBox="0 0 45 45"><title>ic_calculator</title><g id="mask-2"><path id="path-1" d="M10,12.4a2,2,0,0,1,2-2h8a2,2,0,0,1,2,2v8a2,2,0,0,1-2,2H12a2,2,0,0,1-2-2v-8Z" fill="none" stroke="#a6a7ae" stroke-miterlimit="10"/><path id="path-3" d="M26,10.4h8a2,2,0,0,1,2,2v8a2,2,0,0,1-2,2H26a2,2,0,0,1-2-2v-8A2,2,0,0,1,26,10.4Z" fill="none" stroke="#a6a7ae" stroke-miterlimit="10"/><path id="path-5" d="M12,24.4h8a2,2,0,0,1,2,2v8a2,2,0,0,1-2,2H12a2,2,0,0,1-2-2v-8A2,2,0,0,1,12,24.4Z" fill="none" stroke="#a6a7ae" stroke-miterlimit="10"/><path id="path-7" d="M26,24.4h8a2,2,0,0,1,2,2v8a2,2,0,0,1-2,2H26a2,2,0,0,1-2-2v-8A2,2,0,0,1,26,24.4Z" fill="none" stroke="#a6a7ae" stroke-miterlimit="10"/></g><rect width="45" height="45" fill="none"/><path id="Rectangle-2" d="M13.4,29.5h5a0.47,0.47,0,0,1,.5.5h0a0.47,0.47,0,0,1-.5.5h-5a0.47,0.47,0,0,1-.5-0.5h0A0.54,0.54,0,0,1,13.4,29.5Z" fill="#a6a7ae"/><path id="Rectangle-2-2" data-name="Rectangle-2" d="M16.4,27.5v5a0.47,0.47,0,0,1-.5.5h0a0.47,0.47,0,0,1-.5-0.5v-5a0.47,0.47,0,0,1,.5-0.5h0A0.54,0.54,0,0,1,16.4,27.5Z" fill="#a6a7ae"/><g id="Calculator"><g id="Rectangle-687"><path id="path-1-2" data-name="path-1" d="M9.9,12a2,2,0,0,1,2-2h8a2,2,0,0,1,2,2v8a2,2,0,0,1-2,2h-8a2,2,0,0,1-2-2V12Z" fill="none"/></g><g id="Rectangle-687-2" data-name="Rectangle-687"><path id="path-3-2" data-name="path-3" d="M25.9,10h8a2,2,0,0,1,2,2v8a2,2,0,0,1-2,2h-8a2,2,0,0,1-2-2V12A2,2,0,0,1,25.9,10Z" fill="none"/></g><g id="Rectangle-687-3" data-name="Rectangle-687"><path id="path-5-2" data-name="path-5" d="M11.9,24h8a2,2,0,0,1,2,2v8a2,2,0,0,1-2,2h-8a2,2,0,0,1-2-2V26A2,2,0,0,1,11.9,24Z" fill="none"/></g><g id="Rectangle-687-4" data-name="Rectangle-687"><path id="path-7-2" data-name="path-7" d="M25.9,24h8a2,2,0,0,1,2,2v8a2,2,0,0,1-2,2h-8a2,2,0,0,1-2-2V26A2,2,0,0,1,25.9,24Z" fill="none"/></g><path id="Rectangle-2-3" data-name="Rectangle-2" d="M27.4,27.5h5a0.47,0.47,0,0,1,.5.5h0a0.47,0.47,0,0,1-.5.5h-5a0.47,0.47,0,0,1-.5-0.5h0A0.54,0.54,0,0,1,27.4,27.5Z" fill="#a6a7ae"/><path id="Rectangle-2-4" data-name="Rectangle-2" d="M27.4,31.5h5a0.47,0.47,0,0,1,.5.5h0a0.47,0.47,0,0,1-.5.5h-5a0.47,0.47,0,0,1-.5-0.5h0A0.54,0.54,0,0,1,27.4,31.5Z" fill="#a6a7ae"/><path id="Rectangle-2-5" data-name="Rectangle-2" d="M13.4,15.5h5a0.47,0.47,0,0,1,.5.5h0a0.47,0.47,0,0,1-.5.5h-5a0.47,0.47,0,0,1-.5-0.5h0A0.54,0.54,0,0,1,13.4,15.5Z" fill="#a6a7ae"/><g id="Group"><path id="Rectangle-2-6" data-name="Rectangle-2" d="M28.48,13.92L32,17.45a0.47,0.47,0,0,1,0,.71h0a0.47,0.47,0,0,1-.71,0l-3.54-3.54a0.47,0.47,0,0,1,0-.71h0A0.47,0.47,0,0,1,28.48,13.92Z" fill="#a6a7ae"/><path id="Rectangle-2-7" data-name="Rectangle-2" d="M32,14.63l-3.54,3.54a0.47,0.47,0,0,1-.71,0h0a0.47,0.47,0,0,1,0-.71l3.54-3.54a0.47,0.47,0,0,1,.71,0h0A0.47,0.47,0,0,1,32,14.63Z" fill="#a6a7ae"/></g></g></svg>