<svg id="Layer_1" data-name="Layer 1" xmlns="http://www.w3.org/2000/svg" xmlns:xlink="http://www.w3.org/1999/xlink" width="45" height="45" viewBox="0 0 45 45"><defs><filter id="luminosity-noclip" x="7.18" y="10.1" width="31" height="25" filterUnits="userSpaceOnUse" color-interpolation-filters="sRGB"><feFlood flood-color="#fff" result="bg"/><feBlend in="SourceGraphic" in2="bg"/></filter><mask id="mask" x="7.18" y="10.1" width="31" height="25" maskUnits="userSpaceOnUse"><g filter="url(#luminosity-noclip)"><g id="mask-2"><path id="path-1" d="M17,25a6,6,0,1,1,6,6A6,6,0,0,1,17,25Z" fill="#fff"/></g><g id="mask-4"><path id="path-3" d="M8.64,34.06A3.16,3.16,0,0,1,8,31.87V18.24A3,3,0,0,1,10.9,15h7.2c0.18-2.63,1-3.95,3.46-3.95h4.1c2.42,0,3.29,1.32,3.46,3.95h6A2.93,2.93,0,0,1,38,17.89l-0.05,14A3.08,3.08,0,0,1,35.17,35H10.8A2.72,2.72,0,0,1,8.64,34.06Z" fill="#fff"/></g></g></mask></defs><title>ic_camera</title><g mask="url(#mask)"><g id="Page-1"><g id="Stroke-1"><path id="path-1-2" data-name="path-1" d="M16.68,24.6a6,6,0,1,1,6,6A6,6,0,0,1,16.68,24.6Z" fill="none" stroke="#a6a7ae" stroke-linecap="round" stroke-linejoin="round"/></g><g id="Stroke-7"><path id="path-3-2" data-name="path-3" d="M8.32,33.66a3.16,3.16,0,0,1-.64-2.19V17.84a3,3,0,0,1,2.89-3.28h7.2c0.18-2.63,1-3.95,3.46-3.95h4.1c2.42,0,3.29,1.32,3.46,3.95h6a2.93,2.93,0,0,1,2.84,2.94l-0.05,14a3.08,3.08,0,0,1-2.78,3.1H10.48A2.72,2.72,0,0,1,8.32,33.66Z" fill="none" stroke="#a6a7ae" stroke-linecap="round" stroke-linejoin="round"/></g></g></g><rect width="45" height="45" fill="none"/></svg>