<?xml version="1.0" encoding="UTF-8" standalone="no"?>
<svg width="31px" height="31px" viewBox="0 0 31 31" version="1.1" xmlns="http://www.w3.org/2000/svg" xmlns:xlink="http://www.w3.org/1999/xlink">
    <!-- Generator: Sketch 40.1 (33804) - http://www.bohemiancoding.com/sketch -->
    <title>ic_calculator_default</title>
    <desc>Created with Sketch.</desc>
    <defs>
        <path d="M0,2.0085302 C0,0.899249601 0.890429871,0 2.00306405,0 L4.50695801,0 L9.99200226,0 C11.1009888,0 12,0.901950359 12,2.0085302 L12,9.9914698 C12,11.1007504 11.0980496,12 9.9914698,12 L2.0085302,12 C0.899249601,12 0,11.0980496 0,9.9914698 L0,2.0085302 Z" id="path-1"></path>
        <mask id="mask-2" maskContentUnits="userSpaceOnUse" maskUnits="objectBoundingBox" x="0" y="0" width="12" height="12" fill="white">
            <use xlink:href="#path-1"></use>
        </mask>
        <rect id="path-3" x="14" y="0" width="12" height="12" rx="2"></rect>
        <mask id="mask-4" maskContentUnits="userSpaceOnUse" maskUnits="objectBoundingBox" x="0" y="0" width="12" height="12" fill="white">
            <use xlink:href="#path-3"></use>
        </mask>
        <rect id="path-5" x="0" y="14" width="12" height="12" rx="2"></rect>
        <mask id="mask-6" maskContentUnits="userSpaceOnUse" maskUnits="objectBoundingBox" x="0" y="0" width="12" height="12" fill="white">
            <use xlink:href="#path-5"></use>
        </mask>
        <rect id="path-7" x="14" y="14" width="12" height="12" rx="2"></rect>
        <mask id="mask-8" maskContentUnits="userSpaceOnUse" maskUnits="objectBoundingBox" x="0" y="0" width="12" height="12" fill="white">
            <use xlink:href="#path-7"></use>
        </mask>
    </defs>
    <g id="Control-Center" stroke="none" stroke-width="1" fill="none" fill-rule="evenodd">
        <g id="EUI6_ControlCenter_1.0.2" transform="translate(-226.000000, -281.000000)">
            <g id="Quick-Control-Maximum" transform="translate(-349.980000, -51.300000)">
                <g id="Quick-Control-Maximized" transform="translate(349.980000, 188.100000)">
                    <g id="Row-2" transform="translate(18.240000, 127.680000)">
                        <g id="ic_calculator_default" transform="translate(200.640000, 9.120000)">
                            <rect id="Rectangle-2" fill="#A6A7AE" x="10" y="26.5" width="6" height="1" rx="0.5"></rect>
                            <rect id="Rectangle-2" fill="#A6A7AE" transform="translate(13.000000, 27.000000) rotate(90.000000) translate(-13.000000, -27.000000) " x="10" y="26.5" width="6" height="1" rx="0.5"></rect>
                            <g id="Calculator" stroke-width="1" transform="translate(7.000000, 7.000000)">
                                <use id="Rectangle-687" stroke="#A6A7AE" mask="url(#mask-2)" stroke-width="2" xlink:href="#path-1"></use>
                                <use id="Rectangle-687" stroke="#A6A7AE" mask="url(#mask-4)" stroke-width="2" xlink:href="#path-3"></use>
                                <use id="Rectangle-687" stroke="#A6A7AE" mask="url(#mask-6)" stroke-width="2" xlink:href="#path-5"></use>
                                <use id="Rectangle-687" stroke="#A6A7AE" mask="url(#mask-8)" stroke-width="2" xlink:href="#path-7"></use>
                                <rect id="Rectangle-2" fill="#A6A7AE" x="17" y="17.5" width="6" height="1" rx="0.5"></rect>
                                <rect id="Rectangle-2" fill="#A6A7AE" x="17" y="21.5" width="6" height="1" rx="0.5"></rect>
                                <rect id="Rectangle-2" fill="#A6A7AE" x="3" y="5.5" width="6" height="1" rx="0.5"></rect>
                                <g id="Group" transform="translate(20.000000, 6.000000) rotate(45.000000) translate(-20.000000, -6.000000) translate(17.000000, 3.000000)" fill="#A6A7AE">
                                    <rect id="Rectangle-2" x="3.73034936e-14" y="2.5" width="6" height="1" rx="0.5"></rect>
                                    <rect id="Rectangle-2" transform="translate(3.000000, 3.000000) rotate(90.000000) translate(-3.000000, -3.000000) " x="3.73034936e-14" y="2.5" width="6" height="1" rx="0.5"></rect>
                                </g>
                            </g>
                        </g>
                    </g>
                </g>
            </g>
        </g>
    </g>
</svg>