<?xml version="1.0" encoding="UTF-8" standalone="no"?>
<svg width="35px" height="29px" viewBox="0 0 35 29" version="1.1" xmlns="http://www.w3.org/2000/svg" xmlns:xlink="http://www.w3.org/1999/xlink">
    <!-- Generator: Sketch 40.1 (33804) - http://www.bohemiancoding.com/sketch -->
    <title>ic_camera_default</title>
    <desc>Created with Sketch.</desc>
    <defs>
        <path d="M9,14.0005007 C9,10.690812 11.6919082,8 15,8 C18.3080918,8 21,10.690812 21,14.0005007 C21,17.3081866 18.3080918,20 15,20 C11.6919082,20 9,17.3081866 9,14.0005007 Z" id="path-1"></path>
        <mask id="mask-2" maskContentUnits="userSpaceOnUse" maskUnits="objectBoundingBox" x="0" y="0" width="12" height="12" fill="white">
            <use xlink:href="#path-1"></use>
        </mask>
        <path d="M0.63848635,23.0644238 C-0.0829551502,22.2395295 0.00320261167,21.1337536 0.00320261167,20.8737553 L0.00360429123,7.23879485 C0.00360429123,4.77455386 1.82329774,4.00500064 2.89767465,3.95696882 L10.0989567,3.9569686 C10.2754244,1.3267046 11.1386764,0.00810778322 13.5604362,0.00810778322 L17.6617026,0 C20.0834624,0 20.9485558,1.31859681 21.1239855,3.94781664 L27.1619841,3.95696882 C29.2858248,3.95696882 29.9283749,5.87510895 30,6.89317461 L29.9476961,20.9040362 C29.9476961,23.0623354 28.1487635,23.9008039 27.1709248,24 L2.80384889,24 C1.85196133,24 1.15854706,23.6585564 0.63848635,23.0644238 Z" id="path-3"></path>
        <mask id="mask-4" maskContentUnits="userSpaceOnUse" maskUnits="objectBoundingBox" x="0" y="0" width="30" height="24" fill="white">
            <use xlink:href="#path-3"></use>
        </mask>
    </defs>
    <g id="Control-Center" stroke="none" stroke-width="1" fill="none" fill-rule="evenodd" stroke-linecap="round" stroke-linejoin="round">
        <g id="EUI6_ControlCenter_1.0.2" transform="translate(-133.000000, -282.000000)" stroke="#A6A7AE">
            <g id="Quick-Control-Maximum" transform="translate(-349.980000, -51.300000)">
                <g id="Quick-Control-Maximized" transform="translate(349.980000, 188.100000)">
                    <g id="Row-2" transform="translate(18.240000, 127.680000)">
                        <g id="ic_camera_default" transform="translate(109.440000, 9.120000)">
                            <g id="Page-1" transform="translate(5.000000, 8.000000)">
                                <use id="Stroke-1" mask="url(#mask-2)" stroke-width="2" xlink:href="#path-1"></use>
                                <use id="Stroke-7" mask="url(#mask-4)" stroke-width="2" xlink:href="#path-3"></use>
                            </g>
                        </g>
                    </g>
                </g>
            </g>
        </g>
    </g>
</svg>