<?xml version="1.0" encoding="utf-8"?>
<!-- Generator: Adobe Illustrator 19.2.1, SVG Export Plug-In . SVG Version: 6.00 Build 0)  -->
<svg version="1.1" id="Layer_1" xmlns="http://www.w3.org/2000/svg" xmlns:xlink="http://www.w3.org/1999/xlink" x="0px" y="0px"
	 viewBox="0 0 45 45" style="enable-background:new 0 0 45 45;" xml:space="preserve">
<style type="text/css">
	.st0{fill:none;}
	.st1{fill:#A6A7AE;}
	.st2{filter:url(#Adobe_OpacityMaskFilter);}
	.st3{fill:#FFFFFF;}
	.st4{mask:url(#mask-2);}
	.st5{fill:none;stroke:#A6A7AE;stroke-width:2;}
</style>
<rect x="0" y="0" class="st0" width="45" height="45"/>
<path id="Rectangle-2" class="st1" d="M13.4,29.5h5c0.3,0,0.5,0.2,0.5,0.5l0,0c0,0.3-0.2,0.5-0.5,0.5h-5c-0.3,0-0.5-0.2-0.5-0.5l0,0
	C12.9,29.8,13.1,29.5,13.4,29.5z"/>
<path id="Rectangle-2_1_" class="st1" d="M16.4,27.5v5c0,0.3-0.2,0.5-0.5,0.5l0,0c-0.3,0-0.5-0.2-0.5-0.5v-5c0-0.3,0.2-0.5,0.5-0.5
	l0,0C16.2,27,16.4,27.3,16.4,27.5z"/>
<defs>
	<filter id="Adobe_OpacityMaskFilter" filterUnits="userSpaceOnUse" x="8.9" y="9" width="28" height="28">
		<feColorMatrix  type="matrix" values="1 0 0 0 0  0 1 0 0 0  0 0 1 0 0  0 0 0 1 0"/>
	</filter>
</defs>
<mask maskUnits="userSpaceOnUse" x="8.9" y="9" width="28" height="28" id="mask-2">
	<g class="st2">
		<path id="path-1" class="st3" d="M10,12.4c0-1.1,0.9-2,2-2h2.5H20c1.1,0,2,0.9,2,2v8c0,1.1-0.9,2-2,2h-8c-1.1,0-2-0.9-2-2V12.4z"
			/>
	</g>
	<g>
		<path id="path-3" class="st3" d="M26,10.4h8c1.1,0,2,0.9,2,2v8c0,1.1-0.9,2-2,2h-8c-1.1,0-2-0.9-2-2v-8C24,11.3,24.9,10.4,26,10.4
			z"/>
	</g>
	<g>
		<path id="path-5" class="st3" d="M12,24.4h8c1.1,0,2,0.9,2,2v8c0,1.1-0.9,2-2,2h-8c-1.1,0-2-0.9-2-2v-8C10,25.3,10.9,24.4,12,24.4
			z"/>
	</g>
	<g>
		<path id="path-7" class="st3" d="M26,24.4h8c1.1,0,2,0.9,2,2v8c0,1.1-0.9,2-2,2h-8c-1.1,0-2-0.9-2-2v-8C24,25.3,24.9,24.4,26,24.4
			z"/>
	</g>
</mask>
<g id="Calculator" transform="translate(7.000000, 7.000000)" class="st4">
	<g id="Rectangle-687">
		<path id="path-1_1_" class="st5" d="M2.9,5c0-1.1,0.9-2,2-2h2.5h5.5c1.1,0,2,0.9,2,2v8c0,1.1-0.9,2-2,2h-8c-1.1,0-2-0.9-2-2V5z"/>
	</g>
	<g id="Rectangle-687_1_">
		<path id="path-3_1_" class="st5" d="M18.9,3h8c1.1,0,2,0.9,2,2v8c0,1.1-0.9,2-2,2h-8c-1.1,0-2-0.9-2-2V5C16.9,3.9,17.8,3,18.9,3z"
			/>
	</g>
	<g id="Rectangle-687_2_">
		<path id="path-5_1_" class="st5" d="M4.9,17h8c1.1,0,2,0.9,2,2v8c0,1.1-0.9,2-2,2h-8c-1.1,0-2-0.9-2-2v-8C2.9,17.9,3.8,17,4.9,17z
			"/>
	</g>
	<g id="Rectangle-687_3_">
		<path id="path-7_1_" class="st5" d="M18.9,17h8c1.1,0,2,0.9,2,2v8c0,1.1-0.9,2-2,2h-8c-1.1,0-2-0.9-2-2v-8
			C16.9,17.9,17.8,17,18.9,17z"/>
	</g>
	<path id="Rectangle-2_2_" class="st1" d="M20.4,20.5h5c0.3,0,0.5,0.2,0.5,0.5l0,0c0,0.3-0.2,0.5-0.5,0.5h-5c-0.3,0-0.5-0.2-0.5-0.5
		l0,0C19.9,20.8,20.1,20.5,20.4,20.5z"/>
	<path id="Rectangle-2_3_" class="st1" d="M20.4,24.5h5c0.3,0,0.5,0.2,0.5,0.5l0,0c0,0.3-0.2,0.5-0.5,0.5h-5c-0.3,0-0.5-0.2-0.5-0.5
		l0,0C19.9,24.8,20.1,24.5,20.4,24.5z"/>
	<path id="Rectangle-2_4_" class="st1" d="M6.4,8.5h5c0.3,0,0.5,0.2,0.5,0.5l0,0c0,0.3-0.2,0.5-0.5,0.5h-5C6.1,9.5,5.9,9.3,5.9,9
		l0,0C5.9,8.8,6.1,8.5,6.4,8.5z"/>
	
		<g id="Group" transform="translate(20.000000, 6.000000) rotate(45.000000) translate(-20.000000, -6.000000) translate(17.000000, 3.000000)">
		<path id="Rectangle-2_5_" class="st1" d="M4.7,2.6h5c0.3,0,0.5,0.2,0.5,0.5l0,0c0,0.3-0.2,0.5-0.5,0.5h-5c-0.3,0-0.5-0.2-0.5-0.5
			l0,0C4.2,2.8,4.4,2.6,4.7,2.6z"/>
		<path id="Rectangle-2_6_" class="st1" d="M7.7,0.6v5c0,0.3-0.2,0.5-0.5,0.5l0,0c-0.3,0-0.5-0.2-0.5-0.5v-5c0-0.3,0.2-0.5,0.5-0.5
			l0,0C7.5,0.1,7.7,0.3,7.7,0.6z"/>
	</g>
</g>
</svg>
