<?xml version="1.0" encoding="utf-8"?>
<!-- Generator: Adobe Illustrator 19.2.1, SVG Export Plug-In . SVG Version: 6.00 Build 0)  -->
<svg version="1.1" id="Layer_1" xmlns="http://www.w3.org/2000/svg" xmlns:xlink="http://www.w3.org/1999/xlink" x="0px" y="0px"
	 viewBox="0 0 45 45" style="enable-background:new 0 0 45 45;" xml:space="preserve">
<style type="text/css">
	.st0{filter:url(#Adobe_OpacityMaskFilter);}
	.st1{fill:#FFFFFF;}
	.st2{mask:url(#mask-2);}
	.st3{fill:none;stroke:#A6A7AE;stroke-linecap:round;stroke-linejoin:round;}
	.st4{fill:none;}
</style>
<title>ic_camera_default</title>
<desc>Created with Sketch.</desc>
<defs>
	<filter id="Adobe_OpacityMaskFilter" filterUnits="userSpaceOnUse" x="7.2" y="10.1" width="31" height="25">
		<feFlood  style="flood-color:white;flood-opacity:1" result="back"/>
		<feBlend  in="SourceGraphic" in2="back" mode="normal"/>
	</filter>
</defs>
<mask maskUnits="userSpaceOnUse" x="7.2" y="10.1" width="31" height="25" id="mask-2">
	<g class="st0">
		<path id="path-1" class="st1" d="M17,25c0-3.3,2.7-6,6-6s6,2.7,6,6c0,3.3-2.7,6-6,6S17,28.3,17,25z"/>
	</g>
	<g>
		<path id="path-3" class="st1" d="M8.6,34.1C7.9,33.2,8,32.1,8,31.9l0-13.6c0-2.5,1.8-3.2,2.9-3.3h7.2c0.2-2.6,1-3.9,3.5-3.9l4.1,0
			c2.4,0,3.3,1.3,3.5,3.9l6,0c2.1,0,2.8,1.9,2.8,2.9l-0.1,14c0,2.2-1.8,3-2.8,3.1H10.8C9.9,35,9.2,34.7,8.6,34.1z"/>
	</g>
</mask>
<g id="Page-1" transform="translate(5.000000, 8.000000)" class="st2">
	<g id="Stroke-1">
		<path id="path-1_1_" class="st3" d="M11.7,16.6c0-3.3,2.7-6,6-6s6,2.7,6,6c0,3.3-2.7,6-6,6S11.7,19.9,11.7,16.6z"/>
	</g>
	<g id="Stroke-7">
		<path id="path-3_1_" class="st3" d="M3.3,25.7c-0.7-0.8-0.6-1.9-0.6-2.2l0-13.6c0-2.5,1.8-3.2,2.9-3.3l7.2,0
			c0.2-2.6,1-3.9,3.5-3.9l4.1,0c2.4,0,3.3,1.3,3.5,3.9l6,0c2.1,0,2.8,1.9,2.8,2.9l-0.1,14c0,2.2-1.8,3-2.8,3.1H5.5
			C4.5,26.6,3.8,26.3,3.3,25.7z"/>
	</g>
</g>
<rect class="st4" width="45" height="45"/>
</svg>
