<svg id="Layer_1" data-name="Layer 1" xmlns="http://www.w3.org/2000/svg" width="45" height="45" viewBox="0 0 45 45"><title>ic_data</title><g id="ic_data_default" data-name="ic data default"><g id="Group"><rect id="Rectangle" x="28.18" y="14.66" width="1" height="20" fill="#a6a7ae"/><path id="Combined-Shape" d="M32.68,17.53a1,1,0,1,0-1.37-.37,1,1,0,0,0,1.37.37h0Z" fill="#a6a7ae"/><path id="Combined-Shape-2" data-name="Combined-Shape" d="M28.68,10.66a0.5,0.5,0,1,0-.5-0.5,0.5,0.5,0,0,0,.5.5h0Z" fill="#a6a7ae"/><polygon id="Combined-Shape-3" data-name="Combined-Shape" points="32.18 16.66 28.18 10.07 28.18 17.66 32.18 17.66 32.18 16.66" fill="#a6a7ae"/><polygon id="Combined-Shape-4" data-name="Combined-Shape" points="29.13 9.99 28.27 11.39 32.25 17.66 33.15 17.1 29.13 9.99" fill="#a6a7ae"/></g><g id="Group-2" data-name="Group"><rect id="Rectangle-2" data-name="Rectangle" x="15.18" y="9.66" width="1" height="20" fill="#a6a7ae"/><path id="Combined-Shape-5" data-name="Combined-Shape" d="M11.68,26.79a1,1,0,1,0,1.37.37,1,1,0,0,0-1.37-.37h0Z" fill="#a6a7ae"/><path id="Combined-Shape-6" data-name="Combined-Shape" d="M15.68,33.66a0.5,0.5,0,1,0,.5.5,0.5,0.5,0,0,0-.5-0.5h0Z" fill="#a6a7ae"/><polygon id="Combined-Shape-7" data-name="Combined-Shape" points="12.18 27.69 16.15 34.3 16.19 26.71 12.19 26.69 12.18 27.69" fill="#a6a7ae"/><polygon id="Combined-Shape-8" data-name="Combined-Shape" points="15.23 34.33 16.09 32.93 12.11 26.66 11.21 27.22 15.23 34.33" fill="#a6a7ae"/></g></g><rect width="45" height="45" fill="none"/></svg>