<?xml version="1.0" encoding="utf-8"?>
<!-- Generator: Adobe Illustrator 19.2.1, SVG Export Plug-In . SVG Version: 6.00 Build 0)  -->
<svg version="1.1" id="Layer_1" xmlns="http://www.w3.org/2000/svg" xmlns:xlink="http://www.w3.org/1999/xlink" x="0px" y="0px"
	 viewBox="0 0 45 45" style="enable-background:new 0 0 45 45;" xml:space="preserve">
<style type="text/css">
	.st0{fill:#A6A7AE;}
	.st1{fill:none;}
</style>
<title>ic_data_default</title>
<desc>Created with Sketch.</desc>
<g id="ic_data_default" transform="translate(109.440000, 9.120000)">
	
		<g id="Group" transform="translate(28.000000, 20.500000) rotate(180.000000) translate(-28.000000, -20.500000) translate(25.000000, 8.000000)">
		<rect id="Rectangle" x="111.3" y="7.5" class="st0" width="1" height="20"/>
		<path id="Combined-Shape" class="st0" d="M107.8,24.6c-0.5,0.3-0.6,0.9-0.4,1.4c0.3,0.5,0.9,0.6,1.4,0.4c0.5-0.3,0.6-0.9,0.4-1.4
			C108.8,24.5,108.2,24.3,107.8,24.6L107.8,24.6L107.8,24.6z"/>
		<path id="Combined-Shape_1_" class="st0" d="M111.8,31.5c-0.3,0-0.5,0.2-0.5,0.5c0,0.3,0.2,0.5,0.5,0.5c0.3,0,0.5-0.2,0.5-0.5
			C112.3,31.7,112,31.5,111.8,31.5L111.8,31.5L111.8,31.5z"/>
		<polygon id="Combined-Shape_2_" class="st0" points="108.3,25.5 112.3,32 112.3,24.5 108.3,24.5 		"/>
		<polygon id="Combined-Shape_3_" class="st0" points="111.3,32.1 112.2,30.7 108.2,24.5 107.3,25 		"/>
	</g>
	
		<g id="Group_1_" transform="translate(12.000000, 20.500000) scale(-1, -1) rotate(180.000000) translate(-12.000000, -20.500000) translate(9.000000, 8.000000)">
		<rect id="Rectangle_1_" x="-103.3" y="-7.5" class="st0" width="1" height="20"/>
		<path id="Combined-Shape_4_" class="st0" d="M-106.8,9.7c-0.5,0.3-0.6,0.9-0.4,1.4c0.3,0.5,0.9,0.6,1.4,0.4
			c0.5-0.3,0.6-0.9,0.4-1.4C-105.7,9.6-106.3,9.4-106.8,9.7L-106.8,9.7L-106.8,9.7z"/>
		<path id="Combined-Shape_5_" class="st0" d="M-102.8,16.5c-0.3,0-0.5,0.2-0.5,0.5s0.2,0.5,0.5,0.5c0.3,0,0.5-0.2,0.5-0.5
			S-102.5,16.5-102.8,16.5L-102.8,16.5L-102.8,16.5z"/>
		<polygon id="Combined-Shape_6_" class="st0" points="-106.3,10.6 -102.3,17.2 -102.3,9.6 -106.3,9.6 		"/>
		<polygon id="Combined-Shape_7_" class="st0" points="-103.2,17.2 -102.4,15.8 -106.3,9.5 -107.2,10.1 		"/>
	</g>
</g>
<rect x="0" class="st1" width="45" height="45"/>
</svg>
