<?xml version="1.0" encoding="utf-8"?>
<!-- Generator: Adobe Illustrator 19.2.1, SVG Export Plug-In . SVG Version: 6.00 Build 0)  -->
<svg version="1.1" id="Layer_1" xmlns="http://www.w3.org/2000/svg" xmlns:xlink="http://www.w3.org/1999/xlink" x="0px" y="0px"
	 viewBox="0 0 45 45" style="enable-background:new 0 0 45 45;" xml:space="preserve">
<style type="text/css">
	.st0{fill:#A6A7AE;}
	.st1{fill:none;}
</style>
<title>ic_flashlight_default</title>
<desc>Created with Sketch.</desc>
<path class="st0" d="M29.5,9.6H15.8h0c-0.6,0-1.1,0.4-1.1,1c0,0,0,4.2,0,4.2c0,2.2,1.9,4.1,4,5.8v13.8c0,0.6,0.6,1.2,1.2,1.2l5.8,0
	c0.6,0,1.1-0.6,1.1-1.2c0-4.4,0-13.8,0-13.8c2.1-1.6,4-3.6,4-5.8v-4.2C30.6,10.1,30.1,9.6,29.5,9.6z M25.6,34.6h-6v-4h6V34.6z
	 M26,19.6c0,0-0.6,0.3-0.6,1v9h-5.7v-9c0-0.6-0.5-1-0.5-1c-1.8-1.1-3.2-3.4-3.6-5h14C29.2,16.2,27.7,18.3,26,19.6z M29.6,13.6h-14
	v-3h14V13.6z"/>
<rect class="st1" width="45" height="45"/>
</svg>
