<?xml version="1.0" encoding="UTF-8" standalone="no"?>
<svg width="20px" height="31px" viewBox="0 0 20 31" version="1.1" xmlns="http://www.w3.org/2000/svg" xmlns:xlink="http://www.w3.org/1999/xlink">
    <!-- Generator: Sketch 40.1 (33804) - http://www.bohemiancoding.com/sketch -->
    <title>ic_flashlight_default</title>
    <desc>Created with Sketch.</desc>
    <defs></defs>
    <g id="Control-Center" stroke="none" stroke-width="1" fill="none" fill-rule="evenodd">
        <g id="EUI6_ControlCenter_1.0.2" transform="translate(-323.000000, -281.000000)" fill="#A6A7AE">
            <g id="Quick-Control-Maximum" transform="translate(-349.980000, -51.300000)">
                <g id="Quick-Control-Maximized" transform="translate(349.980000, 188.100000)">
                    <g id="Row-2" transform="translate(18.240000, 127.680000)">
                        <g id="ic_flashlight_default" transform="translate(291.840000, 9.120000)">
                            <path d="M22.8233824,17.99823 L22.8233819,27 L17.1286678,27 L17.1286678,17.99823 C17.1286679,17.4442531 16.6066524,16.9750588 16.6066524,16.9750588 C14.8033262,15.9097179 13.3796476,13.5771484 13,12 L27,12 C26.5719078,13.6193182 25.1162109,15.7071142 23.40448,16.9750586 C23.40448,16.9750586 22.8233824,17.3133545 22.8233824,17.99823 Z M12,12.2396554 C12,14.3991906 13.9020823,16.3736696 16.0093994,18.0137332 L16.0093994,31.8562526 C16.0093994,32.4523742 16.5797404,33.0208152 17.1618542,33.0208152 L22.9398735,33 C23.5219873,33 23.9935322,32.431559 23.9935322,31.8354373 C23.993532,27.4381272 23.9935322,18.0137332 23.9935322,18.0137332 C26.1008493,16.3740862 28,14.3991906 28,12.2396554 L28,8.08055068 C28,7.48401242 27.5280488,7.00078311 26.9463415,7.00078311 L13.1723022,7.00078311 L13.1234131,7.00078311 C12.5113821,6.97828795 12.0223577,7.44318788 12.000813,8.03972613 C12,8.0530566 12,12.2396554 12,12.2396554 Z M23,32 L23,28.0452864 L17,28.0452864 L17,32 L23,32 Z M27,11 L27,8 L13,8 L13,11 L27,11 Z" id="Combined-Shape"></path>
                        </g>
                    </g>
                </g>
            </g>
        </g>
    </g>
</svg>