<svg id="Layer_1" data-name="Layer 1" xmlns="http://www.w3.org/2000/svg" width="45" height="45" viewBox="0 0 45 45"><title>ic_flashlight</title><path d="M29.53,9.6H15.7a1.07,1.07,0,0,0-1.12,1s0,4.2,0,4.2c0,2.16,1.9,4.13,4,5.77V34.46a1.23,1.23,0,0,0,1.15,1.16l5.78,0a1.14,1.14,0,0,0,1.05-1.16V20.61c2.11-1.64,4-3.61,4-5.77V10.68A1.07,1.07,0,0,0,29.53,9.6Zm-3.95,25h-6v-4h6v4Zm0.4-15a1.25,1.25,0,0,0-.58,1v9H19.71v-9a1.62,1.62,0,0,0-.52-1,8.91,8.91,0,0,1-3.61-5h14A10.28,10.28,0,0,1,26,19.58Zm3.6-6h-14v-3h14v3Z" fill="#a6a7ae"/><rect width="45" height="45" fill="none"/></svg>