<?xml version="1.0" encoding="UTF-8" standalone="no"?>
<svg width="17px" height="17px" viewBox="0 0 17 17" version="1.1" xmlns="http://www.w3.org/2000/svg" xmlns:xlink="http://www.w3.org/1999/xlink">
    <!-- Generator: Sketch 40.1 (33804) - http://www.bohemiancoding.com/sketch -->
    <title>Settings</title>
    <desc>Created with Sketch.</desc>
    <defs>
        <path d="M10.9907462,6.35936865 C11.8859467,8.02265428 11.2636686,10.0960754 9.60078066,10.9909163 C7.93789268,11.8857573 5.86450254,11.2638428 4.96892924,9.60055717 C4.07410163,7.93764439 4.69675251,5.86422332 6.35926764,4.96900951 C8.02215562,4.07416855 10.0955458,4.69645586 10.9907462,6.35936865 L10.9907462,6.35936865 Z" id="path-1"></path>
        <mask id="mask-2" maskContentUnits="userSpaceOnUse" maskUnits="objectBoundingBox" x="0" y="0" width="6.84" height="6.84" fill="white">
            <use xlink:href="#path-1"></use>
        </mask>
        <path d="M15.9471042,5.26453081 L14.388502,2.68693236 L12.3670835,3.48286945 C11.6330969,2.8227402 10.7561817,2.35136665 9.81657853,2.08215769 L9.51352696,0 L6.40850204,0.0068763464 L6.11548054,2.08869022 C5.65123131,2.22449806 5.19522108,2.40706506 4.75747991,2.65083154 C4.31973874,2.89459802 3.92820757,3.18443602 3.57536383,3.50384231 L1.54642277,2.71546919 L0,5.29994399 L1.73377026,6.58547695 C1.5113175,7.50209393 1.50272029,8.46650151 1.73556134,9.40581043 L0.0132540288,10.6954692 L1.57185617,13.2730676 L3.59291646,12.4771305 C4.3272613,13.1372598 5.2041765,13.6082895 6.14377968,13.8778423 L6.44683126,15.96 L9.55185617,15.9531237 L9.84487768,13.8713098 C10.3087687,13.7355019 10.7651371,13.5529349 11.2028783,13.3091685 C11.6406195,13.065402 12.0321506,12.775564 12.3849944,12.4561577 L14.4139354,13.2445308 L15.96,10.660056 L14.2269462,9.37486687 C14.4490407,8.45824989 14.4579961,7.49349849 14.2244387,6.55418957 L15.9471042,5.26453081 L15.9471042,5.26453081 Z" id="path-3"></path>
        <mask id="mask-4" maskContentUnits="userSpaceOnUse" maskUnits="objectBoundingBox" x="0" y="0" width="15.96" height="15.96" fill="white">
            <use xlink:href="#path-3"></use>
        </mask>
    </defs>
    <g id="Control-Center" stroke="none" stroke-width="1" fill="none" fill-rule="evenodd" stroke-linecap="round" stroke-linejoin="round">
        <g id="EUI6_ControlCenter_1.0.2" transform="translate(-338.000000, -46.000000)" stroke="#FFFFFF" stroke-width="1.14">
            <g id="Quick-Control-Maximum" transform="translate(-349.980000, -51.300000)">
                <g id="Settings" transform="translate(349.980000, 51.300000)">
                    <g id="Settings-Icon" transform="translate(337.440000, 45.600000)">
                        <g id="Settings" transform="translate(1.140000, 1.140000)">
                            <use id="Stroke-1" mask="url(#mask-2)" xlink:href="#path-1"></use>
                            <use id="Stroke-3" mask="url(#mask-4)" xlink:href="#path-3"></use>
                        </g>
                    </g>
                </g>
            </g>
        </g>
    </g>
</svg>