<?xml version="1.0" encoding="utf-8"?>
<!-- Generator: Adobe Illustrator 19.2.1, SVG Export Plug-In . SVG Version: 6.00 Build 0)  -->
<svg version="1.1" id="Layer_1" xmlns="http://www.w3.org/2000/svg" xmlns:xlink="http://www.w3.org/1999/xlink" x="0px" y="0px"
	 viewBox="0 0 45 45" style="enable-background:new 0 0 45 45;" xml:space="preserve">
<style type="text/css">
	.st0{filter:url(#Adobe_OpacityMaskFilter);}
	.st1{fill:#FFFFFF;}
	.st2{mask:url(#mask-2);}
	.st3{display:none;fill:none;stroke:#A6A7AE;}
	.st4{display:none;fill:none;}
	.st5{fill:none;stroke:#A6A7AE;}
	.st6{fill:none;}
</style>
<title>ic_remote_default</title>
<desc>Created with Sketch.</desc>
<g id="ic_remote_default" transform="translate(18.240000, 9.120000)">
	<defs>
		<filter id="Adobe_OpacityMaskFilter" filterUnits="userSpaceOnUse" x="-9.3" y="-1" width="27" height="27">
			<feColorMatrix  type="matrix" values="1 0 0 0 0  0 1 0 0 0  0 0 1 0 0  0 0 0 1 0"/>
		</filter>
	</defs>
	<mask maskUnits="userSpaceOnUse" x="-9.3" y="-1" width="27" height="27" id="mask-2">
		<g class="st0">
			<path id="path-1" class="st1" d="M17.8,12.9c0,7.2-5.8,13-13,13s-13-5.8-13-13s5.8-13,13-13S17.8,5.7,17.8,12.9L17.8,12.9z"/>
		</g>
		<g>
			<path id="path-3" class="st1" d="M8.8,12.9c0,2.2-1.8,4-4,4s-4-1.8-4-4s1.8-4,4-4S8.8,10.7,8.8,12.9L8.8,12.9z"/>
		</g>
	</mask>
	<g id="Page-1" transform="translate(7.000000, 7.000000)" class="st2">
		<g id="Stroke-3">
			<path id="path-1_1_" class="st3" d="M10.2,5.5c0,7.2-5.8,13-13,13s-13-5.8-13-13s5.8-13,13-13S10.2-1.7,10.2,5.5L10.2,5.5z"/>
			<path id="path-1_2_" class="st4" d="M10.2,5.5c0,7.2-5.8,13-13,13s-13-5.8-13-13s5.8-13,13-13S10.2-1.7,10.2,5.5L10.2,5.5z"/>
		</g>
		<g id="Stroke-5">
			<path id="path-3_1_" class="st5" d="M1.2,5.5c0,2.2-1.8,4-4,4s-4-1.8-4-4s1.8-4,4-4S1.2,3.3,1.2,5.5L1.2,5.5z"/>
		</g>
		<polyline id="Stroke-7" class="st5" points="3.9,3.6 5.8,5.5 3.9,7.4 		"/>
		<polyline id="Stroke-9" class="st5" points="-9.4,3.6 -11.3,5.5 -9.4,7.4 		"/>
		<polyline id="Stroke-11" class="st5" points="-0.9,12.1 -2.8,14 -4.7,12.1 		"/>
		<polyline id="Stroke-13" class="st5" points="-0.9,-1.1 -2.8,-3 -4.7,-1.1 		"/>
	</g>
</g>
<rect class="st6" width="45" height="45"/>
<circle class="st5" cx="22.3" cy="21.4" r="13"/>
</svg>
