<?xml version="1.0" encoding="UTF-8" standalone="no"?>
<svg width="31px" height="31px" viewBox="0 0 31 31" version="1.1" xmlns="http://www.w3.org/2000/svg" xmlns:xlink="http://www.w3.org/1999/xlink">
    <!-- Generator: Sketch 40.1 (33804) - http://www.bohemiancoding.com/sketch -->
    <title>ic_remote_default</title>
    <desc>Created with Sketch.</desc>
    <defs>
        <path d="M26,13 C26,20.1798519 20.1796111,26 13,26 C5.82038889,26 0,20.1798519 0,13 C0,5.82014815 5.82038889,0 13,0 C20.1796111,0 26,5.82014815 26,13 L26,13 Z" id="path-1"></path>
        <mask id="mask-2" maskContentUnits="userSpaceOnUse" maskUnits="objectBoundingBox" x="0" y="0" width="26" height="26" fill="white">
            <use xlink:href="#path-1"></use>
        </mask>
        <path d="M17,13 C17,15.2093333 15.2093333,17 13,17 C10.7906667,17 9,15.2093333 9,13 C9,10.7906667 10.7906667,9 13,9 C15.2093333,9 17,10.7906667 17,13 L17,13 Z" id="path-3"></path>
        <mask id="mask-4" maskContentUnits="userSpaceOnUse" maskUnits="objectBoundingBox" x="0" y="0" width="8" height="8" fill="white">
            <use xlink:href="#path-3"></use>
        </mask>
    </defs>
    <g id="Control-Center" stroke="none" stroke-width="1" fill="none" fill-rule="evenodd">
        <g id="EUI6_ControlCenter_1.0.2" transform="translate(-44.000000, -281.000000)" stroke="#A6A7AE">
            <g id="Quick-Control-Maximum" transform="translate(-349.980000, -51.300000)">
                <g id="Quick-Control-Maximized" transform="translate(349.980000, 188.100000)">
                    <g id="Row-2" transform="translate(18.240000, 127.680000)">
                        <g id="ic_remote_default" transform="translate(18.240000, 9.120000)">
                            <g id="Page-1" transform="translate(7.000000, 7.000000)">
                                <use id="Stroke-3" mask="url(#mask-2)" stroke-width="2" xlink:href="#path-1"></use>
                                <use id="Stroke-5" mask="url(#mask-4)" stroke-width="2" xlink:href="#path-3"></use>
                                <polyline id="Stroke-7" points="19.625 11.1031875 21.521875 13.0000625 19.625 14.8967292"></polyline>
                                <polyline id="Stroke-9" points="6.375 11.1031875 4.478125 13.0000625 6.375 14.8967292"></polyline>
                                <polyline id="Stroke-11" points="14.8968125 19.625 12.9999375 21.521875 11.1032708 19.625"></polyline>
                                <polyline id="Stroke-13" points="14.8968125 6.375 12.9999375 4.478125 11.1032708 6.375"></polyline>
                            </g>
                        </g>
                    </g>
                </g>
            </g>
        </g>
    </g>
</svg>