<svg id="Layer_1" data-name="Layer 1" xmlns="http://www.w3.org/2000/svg" xmlns:xlink="http://www.w3.org/1999/xlink" width="45" height="45" viewBox="0 0 45 45"><defs><mask id="mask" x="10" y="9" width="26" height="26" maskUnits="userSpaceOnUse"><g id="mask-2"><path id="path-1" d="M36,22A13,13,0,1,1,23,9,13,13,0,0,1,36,22h0Z" fill="#fff"/></g><g id="mask-4"><path id="path-3" d="M27,22a4,4,0,1,1-4-4,4,4,0,0,1,4,4h0Z" fill="#fff"/></g></mask></defs><title>ic_remote</title><g id="ic_remote_default" data-name="ic remote default"><g mask="url(#mask)"><g id="Page-1"><g id="Stroke-5"><path id="path-3-2" data-name="path-3" d="M26.48,21.6a4,4,0,1,1-4-4,4,4,0,0,1,4,4h0Z" fill="none" stroke="#a6a7ae"/></g><polyline id="Stroke-7" points="29.11 19.7 31 21.6 29.11 23.5" fill="none" stroke="#a6a7ae"/><polyline id="Stroke-9" points="15.86 19.7 13.96 21.6 15.86 23.5" fill="none" stroke="#a6a7ae"/><polyline id="Stroke-11" points="24.38 28.23 22.48 30.12 20.58 28.23" fill="none" stroke="#a6a7ae"/><polyline id="Stroke-13" points="24.38 14.97 22.48 13.08 20.58 14.97" fill="none" stroke="#a6a7ae"/></g></g></g><rect width="45" height="45" fill="none"/><circle cx="22.32" cy="21.44" r="13" fill="none" stroke="#a6a7ae"/></svg>