<?xml version="1.0" encoding="UTF-8" standalone="no"?>
<svg width="29px" height="22px" viewBox="0 0 29 22" version="1.1" xmlns="http://www.w3.org/2000/svg" xmlns:xlink="http://www.w3.org/1999/xlink">
    <!-- Generator: Sketch 40.1 (33804) - http://www.bohemiancoding.com/sketch -->
    <title>ic_wifi_light</title>
    <desc>Created with Sketch.</desc>
    <defs></defs>
    <g id="Control-Center" stroke="none" stroke-width="1" fill="none" fill-rule="evenodd">
        <g id="EUI6_ControlCenter_1.0.2" transform="translate(-45.000000, -176.000000)">
            <g id="Quick-Control-Maximum" transform="translate(-349.980000, -51.300000)">
                <g id="Quick-Control-Maximized" transform="translate(349.980000, 188.100000)">
                    <g id="Row-1" transform="translate(18.240000, 18.240000)">
                        <g id="ic_wifi_default" transform="translate(18.240000, 9.120000)">
                            <g id="Page-1" transform="translate(8.000000, 11.000000)">
                                <path d="M13.5,16.5 C13.5,17.3288719 12.8291925,18 11.9992833,18 C11.1722408,18 10.5,17.3288719 10.5,16.5 C10.5,15.6725621 11.1722408,15 11.9992833,15 C12.8291925,15 13.5,15.6725621 13.5,16.5 L13.5,16.5 Z" id="Stroke-3" fill="#A6A7AE"></path>
                                <path d="M20,9 C15.6502133,3.66185985 8.3424741,3.67147565 4,9" id="Stroke-5" stroke="#A6A7AE" stroke-linecap="round" stroke-linejoin="round"></path>
                                <path d="M24,5 C17.4438003,-1.66372974 6.56358693,-1.66960294 0,5" id="Stroke-7" stroke="#A6A7AE" stroke-linecap="round" stroke-linejoin="round"></path>
                                <path d="M8,12 C10.1274205,9.33205818 13.8749446,9.33460879 16,12" id="Stroke-9" stroke="#A6A7AE" stroke-linecap="round" stroke-linejoin="round"></path>
                            </g>
                        </g>
                    </g>
                </g>
            </g>
        </g>
    </g>
</svg>